<?xml version="1.0" encoding="iso-8859-1"?>
<!-- Generator: Adobe Illustrator 18.0.0, SVG Export Plug-In . SVG Version: 6.00 Build 0)  -->
<!DOCTYPE svg PUBLIC "-//W3C//DTD SVG 1.1//EN" "http://www.w3.org/Graphics/SVG/1.1/DTD/svg11.dtd">
<svg version="1.1" id="Capa_1" xmlns="http://www.w3.org/2000/svg" xmlns:xlink="http://www.w3.org/1999/xlink" x="0px" y="0px"
	 viewBox="0 0 48.722 48.722" style="enable-background:new 0 0 48.722 48.722;" xml:space="preserve">
<g>
	<path style="fill:#333;" d="M42.509,15.552c-3.215-1.239-6.461-0.616-9.494,0.701c1.263-1.447,2.496-3.043,3.472-4.659
		c0.109-0.163,0.207-0.332,0.296-0.506c2.407-4.241,2.88-8.54-2.718-10.624c-3.289-1.224-6.842,0.082-9.032,2.675
		c-2.509,2.971-2.978,6.644-2.665,10.326c-3.196-6.127-9.229-12.881-14.904-8.03c-2.962,2.532-3.091,6.665-1.258,9.888
		c1.485,2.61,3.819,4.259,6.434,5.44c-2.92,0.087-5.766,0.702-8.178,2.539c-2.859,2.177-4.472,5.936-3.034,9.43
		c2.759,6.704,8.883,4.004,13.857,0.103c-3.426,5.994-5.688,13.364,1.224,15.486c6.904,2.119,9.032-4.523,9.432-11.199
		c2.161,6.039,5.909,11.353,11.513,6.913c6.22-4.928,1.852-10.527-3.214-14.812c5.953,1.568,12.602,1.076,13.521-5.552
		C48.265,20.064,45.758,16.804,42.509,15.552z M24.554,8.192c0.323-1.237,1.302-2.899,2.599-4.276
		c1.99-1.221,4.696-1.464,6.577-0.007c2.557,1.98,2.168,5.191,0.826,7.705c-0.062,0.116-0.082,0.229-0.086,0.339
		c-0.534,0.748-1.126,1.461-1.728,2.142c-1.907,2.158-4.078,4.084-6.271,5.944c-0.024,0.02-0.031,0.046-0.052,0.067
		c-0.121-0.129-0.25-0.252-0.387-0.366c1.494-1.492,2.713-3.487,2.655-5.64c-0.012-0.43-0.585-0.484-0.725-0.098
		c-0.601,1.655-1.155,3.186-2.179,4.547c-0.16-1.621,0.059-3.096,0.523-4.692c0.098-0.337-0.38-0.53-0.559-0.236
		c-0.983,1.621-1.073,3.716-0.425,5.487c-0.079,0.089-0.152,0.18-0.236,0.267c-0.08,0.011-0.162,0.01-0.235,0.042
		C24.252,15.732,23.594,11.868,24.554,8.192z M12.427,18.731c-0.838-0.47-1.772-1.039-2.558-1.703
		c-0.013-0.021-0.021-0.044-0.039-0.063c-1.835-1.99-2.442-5.416-0.635-7.618c1.905-2.322,4.313-1.79,6.887-1.556
		c0.018,0.002,0.032-0.004,0.049-0.004c0.346,0.282,0.731,0.641,1.205,1.1c0.996,0.965,1.887,2.071,2.664,3.218
		c1.444,2.133,2.321,4.56,2.932,7.044c-0.372,0.028-0.732,0.117-1.073,0.255c-0.54-1.597-1.447-3.233-2.882-4.125
		c-0.363-0.225-0.904,0.25-0.62,0.621c1.004,1.312,2.028,2.459,2.671,3.98c-0.086,0.066-0.156,0.16-0.237,0.235
		c-1.422-0.797-2.697-1.798-3.84-2.972c-0.338-0.347-0.977,0.114-0.687,0.53c1.002,1.438,2.395,2.454,4.024,2.992
		c-0.164,0.225-0.32,0.463-0.442,0.738c-0.012,0.026-0.014,0.053-0.025,0.079c-0.1-0.125-0.225-0.232-0.403-0.282
		C17.072,20.543,14.566,19.931,12.427,18.731z M11.09,33.628c-0.12-0.134-0.289-0.233-0.467-0.257
		c-0.963-0.128-1.896,0.117-2.863-0.14c-1.213-0.323-2.329-1.059-2.955-2.169c-1.195-2.121-0.341-4.858,1.311-6.441
		c0.099-0.095,0.14-0.206,0.14-0.314c0.858-0.556,1.778-0.984,2.651-1.247c2.598-0.784,5.371-0.658,8.071-0.382
		c-0.926,0.396-1.712,1.042-2.066,1.979c-0.14,0.37,0.334,0.674,0.643,0.494c0.716-0.417,1.311-1.002,2.063-1.363
		c0.612-0.293,1.276-0.453,1.949-0.525c0.029,0.274,0.099,0.539,0.187,0.797c-0.395,0.53-0.848,1.032-1.37,1.426
		c-0.618,0.467-1.388,0.681-1.995,1.141c-0.358,0.271-0.316,1.034,0.264,0.973c1.392-0.147,2.699-1.401,3.521-2.662
		c0.115,0.174,0.243,0.34,0.386,0.496c-0.023,0.021-0.048,0.027-0.07,0.052c-0.285,0.317-0.614,0.707-0.969,1.146
		c-1.226,1.415-2.528,2.758-3.957,3.977C14.589,31.442,12.915,32.686,11.09,33.628z M24.385,36.239
		c-0.071,1.466-0.122,3.094-0.522,4.509c-0.132,0.463-0.264,0.926-0.395,1.389c-0.257,0.682-0.525,1.275-0.802,1.797
		c-1.951,0.944-4.122,1.516-6.096,0.168c-1.707-1.166-2.539-3.68-1.988-5.661c0.001-0.006,0-0.01,0.001-0.016
		c0.097-0.277,0.215-0.549,0.358-0.817c0.42-1.298,1.018-2.494,1.666-3.688c1.262-2.325,2.792-4.447,4.466-6.484
		c-0.392,0.932-0.56,2.054-0.698,2.92c-0.053,0.327,0.427,0.477,0.508,0.14c0.177-0.733,0.395-1.453,0.677-2.154
		c0.235-0.585,0.551-1.147,0.662-1.769c0.226,0.086,0.455,0.149,0.686,0.196c-0.343,1.399-0.518,2.891-0.733,4.28
		c-0.057,0.367,0.459,0.531,0.57,0.157c0.335-1.131,0.712-2.31,1.001-3.492c0.084,0.778,0.225,1.73,0.426,2.791
		C24.377,32.409,24.479,34.319,24.385,36.239z M24.252,24.701c-1.068,0.218-2.48-0.54-2.55-1.714
		c-0.072-1.21,1.505-2.531,2.705-2.474c0.251,0.484,0.84,0.979,1.013,1.42C25.829,22.979,25.485,24.449,24.252,24.701z
		 M37.672,35.011c-0.202,0.2-0.308,0.523-0.177,0.824c0.759,1.749,0.325,3.84-1.338,4.935c-1.936,1.275-4.631,0.762-6.653-0.075
		c-0.223-0.303-0.436-0.636-0.633-1.02c-0.792-1.278-1.4-2.643-1.824-4.096c-0.538-1.605-0.906-3.246-1.173-4.905
		c-0.026-0.349-0.056-0.68-0.086-1.005c0.233,0.519,0.526,0.995,0.91,1.373c0.22,0.216,0.663,0.001,0.546-0.318
		c-0.269-0.734-0.718-1.382-1.012-2.107c-0.293-0.724-0.492-1.481-0.629-2.248c0.047-0.026,0.091-0.059,0.137-0.086
		c0.799,1.465,1.718,3.01,2.975,4.095c0.292,0.252,0.822-0.08,0.572-0.441c-0.957-1.38-2.11-2.605-3.084-3.977
		c0.095-0.078,0.192-0.152,0.278-0.243c0.287,0.212,0.601,0.424,0.937,0.635C30.648,28.488,35.816,31.344,37.672,35.011z
		 M44.418,22.701c-0.224,2.028-1.728,3.726-3.582,4.487c-0.256,0.105-0.375,0.321-0.386,0.535c-0.047,0.01-0.09,0.019-0.139,0.028
		c-1.376,0.271-2.596,0.234-3.985,0.086c-2.845-0.304-5.369-1.301-7.686-2.87c-0.462-0.333-0.884-0.639-1.254-0.916
		c0.026-0.103,0.039-0.209,0.058-0.314c0.011,0.007,0.018,0.016,0.031,0.022c2.03,0.869,4.183,1.114,6.308,0.447
		c0.478-0.15,0.279-0.832-0.205-0.742c-1.98,0.369-3.919,0.313-5.827-0.36c-0.089-0.031-0.17-0.018-0.24,0.018
		c0.001-0.023-0.003-0.045-0.003-0.068c1.367-0.421,2.695-0.705,4.154-0.67c0.808,0.019,0.808-1.28,0-1.255
		c-1.453,0.045-2.92,0.328-4.249,0.932c-0.026-0.129-0.042-0.26-0.081-0.385c0.103-0.021,0.207-0.055,0.309-0.123
		c2.345-1.559,4.837-3.345,7.575-4.129c1.3-0.372,2.81-0.69,4.163-0.574c0.858,0.251,1.715,0.502,2.573,0.753
		C43.412,19.081,44.668,20.427,44.418,22.701z"/>
</g>
<g>
</g>
<g>
</g>
<g>
</g>
<g>
</g>
<g>
</g>
<g>
</g>
<g>
</g>
<g>
</g>
<g>
</g>
<g>
</g>
<g>
</g>
<g>
</g>
<g>
</g>
<g>
</g>
<g>
</g>
</svg>
